<svg version="1.2" xmlns="http://www.w3.org/2000/svg" viewBox="0 0 16 16" width="16" height="16">
	<title>favicon</title>
	<defs>
		<clipPath clipPathUnits="userSpaceOnUse" id="cp1">
			<path d="m0 3c0-1.66 1.34-3 3-3h10c1.66 0 3 1.34 3 3v10c0 1.66-1.34 3-3 3h-10c-1.66 0-3-1.34-3-3z"/>
		</clipPath>
		<linearGradient id="g1" x2="1" gradientUnits="userSpaceOnUse" gradientTransform="matrix(12.293,12.098,-12.098,12.293,1.854,2.093)">
			<stop offset="0" stop-color="#409bfd"/>
			<stop offset="1" stop-color="#8165f6"/>
		</linearGradient>
	</defs>
	<style>
		.s0 { fill: #ffffff } 
	</style>
	<g id="Logo">
		<g clip-path="url(#cp1)">
			<path id="Shape 65" class="s0" d="m0 3c0-1.7 1.3-3 3-3h10c1.7 0 3 1.3 3 3v10c0 1.7-1.3 3-3 3h-10c-1.7 0-3-1.3-3-3z"/>
			<rect width="16" height="16" id="Gradient Fill 1" style="fill: url(#g1)"/>
		</g>
		<path id="Layer 1" class="s0" d="m6.2 3l-1.2 5.5h2.5l-0.1 5.4 3.7-6.5-2.5-0.7 0.7-3.7zm0 0l-1.2 5.5h2.4v5.4l3.7-6.5-2.5-0.7 0.7-3.7z"/>
	</g>
</svg>