<svg version="1.2" xmlns="http://www.w3.org/2000/svg" viewBox="0 0 16 16" width="16" height="16">
	<title>mockup_starter_kit_favicon</title>
	<style>
		tspan { white-space:pre } 
		.s0 { fill: #e9ebfb } 
		.s1 { fill: #ffca28 } 
		.s2 { fill: #e2a610 } 
		.s3 { fill: #6b4b46 } 
		.s4 { fill: #6d4c41 } 
		.s5 { fill: #000000 } 
	</style>
	<g id="Icon">
		<path id="Shape 5" class="s0" d="m0 1c0-0.6 0.4-1 1-1h14c0.6 0 1 0.4 1 1v14c0 0.6-0.4 1-1 1h-14c-0.6 0-1-0.4-1-1z"/>
		<path id="ðŸ’°ï¸ copy" class="s1" d="m11.3 5.3q-0.6 0.1-1.1 0.2-0.6 0-1.1-0.2-0.5-0.1-0.7-0.5-0.2-0.5-0.3-1.4-0.1-0.4 0-0.8 0.1-0.4 0.4-0.6 0.2-0.2 0.4-0.2 0.2 0 0.4 0.1 0.1 0.1 0.2 0.3 0.2 0.1 0.2 0.1 0.3-0.2 0.6-0.4 0.2-0.2 0.5-0.3 0.3-0.1 0.6-0.1 0.4-0.1 0.7 0.1 0.3 0.1 0.4 0.4 0.2 0.3 0.1 0.6-0.1 0.3-0.1 0.4 0 0.2 0.2 0.4 0 0.1 0.2 0.2 0.1 0.1 0.2 0.2 0.1 0.2 0 0.3 0 0.1-0.3 0.4-0.3 0.3-0.8 0.5-0.4 0.2-0.7 0.3zm-3.5-0.1q0 0 0.2-0.1 0.3-0.1 0.8-0.1 0.4 0 1 0.2 0.5 0.1 1 0.6 0.6 0.4 0.9 1 0.3 0.5 0.4 1 0.2 0.5 0.2 0.8 0 0.3 0 0.3 0 0 0.2 0.2 0.3 0.2 0.6 0.5 0.3 0.3 0.5 0.8 0.3 0.5 0.3 1.1 0.1 0.5-0.1 1-0.2 0.5-0.8 1-0.7 0.4-1.8 0.7-0.7 0.1-1.5 0.2-0.9 0.1-1.7 0.1-0.8-0.1-1.6-0.1-0.8-0.1-1.4-0.3-0.7-0.1-1.1-0.3-0.5-0.2-1-0.7-0.5-0.4-0.7-1.1-0.3-0.7-0.2-1.6 0.1-0.8 0.7-1.9 0.5-0.9 1.1-1.5 0.7-0.6 1.4-1 0.7-0.3 1.2-0.5 0.6-0.2 1-0.3 0.4 0 0.4 0z"/>
		<path id="ðŸ’°ï¸ copy" fill-rule="evenodd" class="s2" d="m12.5 1.9q0.2 0.3 0.2 0.6-0.1 0.2-0.1 0.4-0.1 0.2-0.1 0.3 0.1 0.2 0.2 0.2 0.1 0.1 0.2 0.2 0.1 0 0.2 0.2 0.1 0.1 0 0.3 0 0.1-0.3 0.4-0.3 0.2-0.7 0.5-0.5 0.2-0.8 0.3-0.3 0.1-0.6 0.1-0.2 0-0.2 0l-0.5-0.4q0.3-0.2 0.7-0.4 0.4-0.3 0.8-0.7 0.4-0.4 0.7-0.9 0.3-0.5 0.3-1.1zm-2.8 0.4q0 0-0.1 0.5-0.2 0.4-0.3 1 0 0.1 0 0.1-0.1 0-0.1-0.1-0.1-0.3-0.2-0.6 0-0.4 0-0.7 0.1-0.3 0.3-0.6 0.1 0.1 0.3 0.3 0.1 0.1 0.1 0.1zm2.1 5.1q0.1 0.1 0.3 0.2 0.1 0.2 0.1 0.6 0.1 0.3 0.1 0.5 0 0.2 0 0.2 0 0-0.1-0.1-0.1-0.1-0.3-0.3-0.1-0.1-0.2-0.3-0.2-0.2-0.2-0.5 0-0.2 0.1-0.3 0.1 0 0.2 0z"/>
		<path id="ðŸ’°ï¸ copy" fill-rule="evenodd" class="s3" d="m9.2 10.1q0.2 0.3 0.2 0.6 0.1 0.2 0 0.6-0.1 0.2-0.2 0.5-0.2 0.2-0.5 0.4-0.4 0.1-0.8 0.2-0.2 0-0.4-0.1 0-0.3 0.1-0.8 0.2 0 0.4 0 0.2-0.1 0.3-0.2 0.1-0.2 0.1-0.4 0-0.2-0.2-0.5-0.1-0.1-0.4-0.3 0.1-0.5 0.3-0.9 0.1 0.1 0.3 0.2 0.4 0.2 0.8 0.7zm-2.4 2.1q-0.3-0.1-0.6-0.3-0.3-0.2-0.6-0.5-0.1-0.2-0.2-0.5-0.1-0.3 0-0.5 0-0.3 0.4-0.4 0.3-0.1 0.5 0.2 0.1 0.2 0 0.3 0 0.2 0.1 0.3 0 0.2 0.2 0.4 0.2 0.1 0.4 0.2 0 0.4-0.1 0.8 0 0-0.1 0zm0.2-0.8q0.1-0.3 0.1-0.7 0.1-0.5 0.2-0.9 0.3 0.1 0.5 0.3 0 0 0 0 0 0.4-0.1 0.7-0.1 0.4-0.1 0.7-0.2 0-0.4-0.1-0.1 0-0.2 0zm0.2-1.7q-0.3-0.1-0.4-0.2-0.4-0.3-0.6-0.6-0.1-0.3-0.1-0.6 0-0.3 0.1-0.4 0.2-0.5 0.5-0.6 0.2-0.2 0.5-0.3 0.3-0.1 0.5-0.1 0.2 0 0.3 0.1 0.1 0 0.2 0-0.1 0.3-0.3 0.7-0.2 0-0.3 0-0.2 0-0.3 0.2-0.2 0.1-0.2 0.2-0.1 0.2 0 0.4 0.1 0.1 0.2 0.2 0.1 0.1 0.2 0.2-0.1 0.5-0.2 0.9 0 0-0.1-0.1zm1.6-2.6q0.4 0.2 0.6 0.4 0.3 0.2 0.4 0.3 0.1 0.1 0.2 0.4 0.2 0.2 0.2 0.4 0 0.2-0.2 0.4-0.2 0.1-0.4 0.1-0.3 0-0.4-0.2-0.1-0.1-0.1-0.3 0-0.1 0-0.2 0-0.2-0.1-0.2-0.3-0.3-0.5-0.4 0.1-0.4 0.2-0.7 0.1 0 0.1 0zm-0.3 0.7q-0.3 0.7-0.4 1.4-0.2-0.1-0.4-0.2-0.1 0-0.2-0.1 0.2-0.6 0.4-1.2 0.1 0 0.3 0 0.1 0.1 0.3 0.1zm0.2-0.7q-0.2-0.1-0.5-0.1 0.2-0.4 0.3-0.8l0.5 0.2q-0.1 0.4-0.3 0.7zm-1.8 5.1q0.3 0.1 0.6 0.1-0.1 0.4-0.1 0.7l-0.5-0.1q0-0.3 0-0.7zm3.8-7.3q0.2 0.3 0.3 0.6 0.1 0.2 0 0.3 0 0.1-0.2 0-0.2-0.1-0.6-0.2-0.3-0.2-0.8-0.4-0.5-0.1-1-0.1-0.3 0.1-0.4 0 0-0.1 0-0.2 0.1-0.2 0.2-0.3 0.3-0.1 0.7-0.2 0.4-0.1 1.1 0.1 0.4 0.1 0.7 0.4z"/>
		<path id="ðŸ’°ï¸ copy" class="s4" d="m10 4.5q-0.7-0.2-1.1-0.1-0.4 0.1-0.7 0.2-0.1 0.1-0.2 0.3 0 0.1 0 0.2 0.1 0.1 0.4 0 0.5 0 1 0.1 0.5 0.2 0.8 0.4 0.4 0.1 0.6 0.2 0.2 0.1 0.2 0 0.1-0.1 0-0.3-0.1-0.3-0.3-0.6-0.3-0.3-0.7-0.4z"/>
		<path id="ðŸ’°ï¸ copy" class="s5" d=""/>
	</g>
</svg>